<svg width="87" height="26" viewBox="0 0 87 26" fill="none" xmlns="http://www.w3.org/2000/svg">
<path d="M16.3477 11.877C16.0417 12.3717 15.6283 12.8633 15.1074 13.3516C14.5866 13.8333 13.9909 14.2695 13.3203 14.6602C12.6562 15.0443 11.9303 15.3535 11.1426 15.5879C10.3548 15.8288 9.54102 15.9492 8.70117 15.9492C8.04362 15.9492 7.38607 15.8906 6.72852 15.7734C6.07747 15.6562 5.44922 15.4772 4.84375 15.2363C4.24479 14.9954 3.6849 14.6927 3.16406 14.3281C2.64974 13.957 2.20052 13.5208 1.81641 13.0195C1.43229 12.5182 1.12956 11.9486 0.908203 11.3105C0.693359 10.6725 0.585938 9.96289 0.585938 9.18164C0.585938 8.41992 0.696615 7.69727 0.917969 7.01367C1.14583 6.33008 1.46159 5.69857 1.86523 5.11914C2.26888 4.5332 2.7474 4.00586 3.30078 3.53711C3.85417 3.06836 4.45964 2.67122 5.11719 2.3457C5.77474 2.01367 6.4681 1.75977 7.19727 1.58398C7.92643 1.4082 8.67188 1.32031 9.43359 1.32031C10.2734 1.32031 11.0612 1.42122 11.7969 1.62305C12.5391 1.81836 13.1868 2.09831 13.7402 2.46289C14.2936 2.82096 14.7298 3.25391 15.0488 3.76172C15.3743 4.26302 15.5371 4.82292 15.5371 5.44141C15.5371 6.01432 15.4036 6.5612 15.1367 7.08203C14.8698 7.59635 14.502 8.04883 14.0332 8.43945C13.571 8.83008 13.0273 9.13932 12.4023 9.36719C11.7839 9.59505 11.123 9.70898 10.4199 9.70898C9.85352 9.70898 9.35221 9.64062 8.91602 9.50391C8.47982 9.36068 8.11523 9.16536 7.82227 8.91797C7.5293 8.67057 7.30794 8.38086 7.1582 8.04883C7.00846 7.7168 6.93359 7.35872 6.93359 6.97461C6.93359 6.6556 6.98242 6.36589 7.08008 6.10547C7.18424 5.83854 7.29492 5.61068 7.41211 5.42188C7.53581 5.23307 7.64974 5.08659 7.75391 4.98242C7.86458 4.87174 7.92643 4.8099 7.93945 4.79688C7.97201 4.76432 8.00781 4.74479 8.04688 4.73828C8.09245 4.72526 8.13477 4.71875 8.17383 4.71875C8.27799 4.71875 8.36589 4.7513 8.4375 4.81641C8.50911 4.88151 8.54492 4.96615 8.54492 5.07031C8.54492 5.1875 8.5026 5.28516 8.41797 5.36328C8.40495 5.36979 8.35938 5.41536 8.28125 5.5C8.20312 5.57812 8.11849 5.6888 8.02734 5.83203C7.9362 5.96875 7.85156 6.13477 7.77344 6.33008C7.70182 6.52539 7.66602 6.74023 7.66602 6.97461C7.66602 7.3457 7.7474 7.6582 7.91016 7.91211C8.07943 8.16602 8.29753 8.37435 8.56445 8.53711C8.83138 8.69336 9.1276 8.80729 9.45312 8.87891C9.77865 8.94401 10.1042 8.97656 10.4297 8.97656C11.0352 8.97656 11.6016 8.87891 12.1289 8.68359C12.6628 8.48828 13.1283 8.22786 13.5254 7.90234C13.9225 7.57682 14.235 7.20247 14.4629 6.7793C14.6908 6.35612 14.8047 5.91341 14.8047 5.45117C14.8047 4.94336 14.6615 4.48112 14.375 4.06445C14.0885 3.64128 13.7012 3.2832 13.2129 2.99023C12.7246 2.69076 12.1517 2.45964 11.4941 2.29688C10.8431 2.13411 10.1465 2.05273 9.4043 2.05273C8.8444 2.05273 8.25521 2.12109 7.63672 2.25781C7.02474 2.38802 6.41927 2.58659 5.82031 2.85352C5.22135 3.12044 4.64844 3.45247 4.10156 3.84961C3.5612 4.24674 3.08594 4.71224 2.67578 5.24609C2.26562 5.77344 1.93685 6.36589 1.68945 7.02344C1.44857 7.68099 1.32812 8.40039 1.32812 9.18164C1.32812 9.89128 1.42578 10.5326 1.62109 11.1055C1.82292 11.6784 2.09961 12.1895 2.45117 12.6387C2.80273 13.0814 3.21289 13.4655 3.68164 13.791C4.1569 14.1165 4.66471 14.3867 5.20508 14.6016C5.75195 14.8099 6.32161 14.9661 6.91406 15.0703C7.50651 15.168 8.0957 15.2168 8.68164 15.2168C9.46289 15.2168 10.2148 15.1094 10.9375 14.8945C11.6602 14.6732 12.3275 14.3867 12.9395 14.0352C13.5579 13.6771 14.1048 13.2767 14.5801 12.834C15.0553 12.3913 15.4329 11.9453 15.7129 11.4961C15.7454 11.4375 15.791 11.3952 15.8496 11.3691C15.9082 11.3366 15.9701 11.3203 16.0352 11.3203C16.1458 11.3203 16.2337 11.3594 16.2988 11.4375C16.3639 11.5091 16.3965 11.5905 16.3965 11.6816C16.3965 11.7142 16.3932 11.7467 16.3867 11.7793C16.3802 11.8118 16.3672 11.8444 16.3477 11.877ZM21.8652 14.4258C21.7025 14.4258 21.5592 14.4128 21.4355 14.3867C21.3379 14.582 21.2207 14.7643 21.084 14.9336C20.9473 15.0964 20.7878 15.2396 20.6055 15.3633C20.4297 15.487 20.2311 15.5846 20.0098 15.6562C19.7884 15.7279 19.5475 15.7637 19.2871 15.7637C18.9811 15.7637 18.7012 15.7083 18.4473 15.5977C18.1934 15.4935 17.972 15.347 17.7832 15.1582C17.5944 14.9629 17.4479 14.7318 17.3438 14.4648C17.2396 14.1914 17.1875 13.8919 17.1875 13.5664C17.1875 13.1497 17.2624 12.7884 17.4121 12.4824C17.5618 12.1699 17.7344 11.9128 17.9297 11.7109C18.125 11.5026 18.3203 11.3496 18.5156 11.252C18.7109 11.1478 18.8574 11.0957 18.9551 11.0957C19.0658 11.0957 19.1471 11.125 19.1992 11.1836C19.2578 11.2422 19.2871 11.3203 19.2871 11.418C19.2871 11.5286 19.2513 11.6133 19.1797 11.6719C19.1146 11.724 19.0299 11.776 18.9258 11.8281C18.8216 11.8802 18.7109 11.9551 18.5938 12.0527C18.4766 12.1439 18.3659 12.2611 18.2617 12.4043C18.1641 12.5475 18.0827 12.7168 18.0176 12.9121C17.9525 13.1074 17.9199 13.3255 17.9199 13.5664C17.9199 13.7812 17.9525 13.9831 18.0176 14.1719C18.0827 14.3542 18.1771 14.5137 18.3008 14.6504C18.4245 14.7806 18.571 14.8848 18.7402 14.9629C18.9095 15.0345 19.0983 15.0703 19.3066 15.0703C19.6777 15.0703 19.9837 14.9857 20.2246 14.8164C20.472 14.6406 20.6608 14.4193 20.791 14.1523C20.4069 13.9505 20.0911 13.6641 19.8438 13.293C19.5964 12.9219 19.4727 12.5052 19.4727 12.043C19.4727 11.6719 19.5605 11.3691 19.7363 11.1348C19.9186 10.9004 20.1562 10.7832 20.4492 10.7832C20.625 10.7832 20.791 10.8255 20.9473 10.9102C21.1035 10.9948 21.2402 11.1283 21.3574 11.3105C21.4811 11.4928 21.5788 11.7272 21.6504 12.0137C21.722 12.3001 21.7578 12.6419 21.7578 13.0391C21.7578 13.2474 21.7318 13.4655 21.6797 13.6934C21.7188 13.6999 21.7578 13.7031 21.7969 13.7031C21.8359 13.7031 21.8783 13.7031 21.9238 13.7031C22.1452 13.7031 22.3438 13.6771 22.5195 13.625C22.6953 13.5729 22.8548 13.4948 22.998 13.3906C23.1413 13.2865 23.2682 13.153 23.3789 12.9902C23.4961 12.8275 23.6068 12.6387 23.7109 12.4238C23.7305 12.3848 23.7728 12.349 23.8379 12.3164C23.903 12.2773 23.9681 12.2578 24.0332 12.2578C24.1178 12.2578 24.196 12.2936 24.2676 12.3652C24.3457 12.4303 24.3848 12.5182 24.3848 12.6289C24.3848 12.681 24.3717 12.7396 24.3457 12.8047C24.3197 12.8633 24.2936 12.9186 24.2676 12.9707C24.1569 13.166 24.0267 13.3548 23.877 13.5371C23.7337 13.7129 23.5612 13.8691 23.3594 14.0059C23.1641 14.1361 22.9427 14.2402 22.6953 14.3184C22.4479 14.3965 22.1712 14.4323 21.8652 14.4258ZM20.1953 11.9648C20.1953 12.0885 20.2116 12.2188 20.2441 12.3555C20.2767 12.4922 20.3255 12.6289 20.3906 12.7656C20.4622 12.8958 20.5469 13.0228 20.6445 13.1465C20.7487 13.2637 20.8691 13.3646 21.0059 13.4492C21.0254 13.3125 21.0352 13.179 21.0352 13.0488C21.0352 12.873 21.0221 12.694 20.9961 12.5117C20.9701 12.3294 20.931 12.1634 20.8789 12.0137C20.8333 11.8574 20.7747 11.7337 20.7031 11.6426C20.6315 11.5449 20.5469 11.4961 20.4492 11.4961C20.4102 11.4961 20.3581 11.5254 20.293 11.584C20.2279 11.6426 20.1953 11.7695 20.1953 11.9648ZM24.4531 15.9785C24.9349 15.7637 25.3711 15.5163 25.7617 15.2363C26.1589 14.9564 26.5104 14.6634 26.8164 14.3574C27.1289 14.0449 27.3926 13.7292 27.6074 13.4102C27.8288 13.0846 28.0046 12.7754 28.1348 12.4824C28.1934 12.3392 28.304 12.2676 28.4668 12.2676C28.5775 12.2676 28.6654 12.3066 28.7305 12.3848C28.8021 12.4564 28.8379 12.5378 28.8379 12.6289C28.8379 12.681 28.8281 12.7298 28.8086 12.7754C28.6654 13.0944 28.4831 13.4264 28.2617 13.7715C28.0404 14.11 27.7702 14.4453 27.4512 14.7773C27.1387 15.1029 26.7708 15.4186 26.3477 15.7246C25.9245 16.0306 25.4395 16.3105 24.8926 16.5645C25.2441 16.929 25.5501 17.3327 25.8105 17.7754C26.071 18.2246 26.2858 18.6901 26.4551 19.1719C26.6309 19.6536 26.7611 20.1387 26.8457 20.627C26.9368 21.1217 26.9824 21.5938 26.9824 22.043C26.9824 22.4531 26.9434 22.8372 26.8652 23.1953C26.7936 23.5599 26.6829 23.8757 26.5332 24.1426C26.39 24.4095 26.2142 24.6178 26.0059 24.7676C25.7975 24.9238 25.5599 25.002 25.293 25.002C24.9023 25.002 24.5996 24.8555 24.3848 24.5625C24.1699 24.276 24.0104 23.8757 23.9062 23.3613C23.8086 22.8535 23.75 22.2513 23.7305 21.5547C23.7174 20.8646 23.7109 20.1126 23.7109 19.2988C23.7109 18.8952 23.7109 18.4232 23.7109 17.8828C23.7109 17.349 23.7109 16.7728 23.7109 16.1543C23.7174 15.5423 23.7207 14.901 23.7207 14.2305C23.7272 13.5534 23.7337 12.8763 23.7402 12.1992C23.7467 11.5221 23.7533 10.8581 23.7598 10.207C23.7663 9.54948 23.776 8.92773 23.7891 8.3418C23.8086 7.22201 23.8477 6.22266 23.9062 5.34375C23.9648 4.46484 24.0592 3.72266 24.1895 3.11719C24.3197 2.51172 24.4954 2.05273 24.7168 1.74023C24.9447 1.42122 25.2311 1.26172 25.5762 1.26172C25.8496 1.26172 26.0807 1.33984 26.2695 1.49609C26.4583 1.64583 26.6113 1.85091 26.7285 2.11133C26.8457 2.36523 26.9303 2.66471 26.9824 3.00977C27.0345 3.35482 27.0605 3.71615 27.0605 4.09375C27.0605 4.88802 26.9922 5.65625 26.8555 6.39844C26.7188 7.14062 26.5332 7.86003 26.2988 8.55664C26.0645 9.25326 25.7878 9.93359 25.4688 10.5977C25.1562 11.2617 24.821 11.916 24.4629 12.5605C24.4629 12.8275 24.4629 13.1172 24.4629 13.4297C24.4629 13.7357 24.4629 14.0449 24.4629 14.3574C24.4629 14.6634 24.4596 14.9596 24.4531 15.2461C24.4531 15.526 24.4531 15.7702 24.4531 15.9785ZM24.4824 11.0566C24.7493 10.5553 24.9935 10.028 25.2148 9.47461C25.4427 8.91471 25.638 8.33854 25.8008 7.74609C25.9635 7.15365 26.0905 6.54818 26.1816 5.92969C26.2728 5.3112 26.3184 4.68945 26.3184 4.06445C26.3184 3.75195 26.3021 3.46875 26.2695 3.21484C26.2435 2.96094 26.1979 2.74609 26.1328 2.57031C26.0742 2.38802 25.9961 2.24805 25.8984 2.15039C25.8073 2.04622 25.6999 1.99414 25.5762 1.99414C25.446 1.99414 25.332 2.07227 25.2344 2.22852C25.1367 2.38477 25.0521 2.5931 24.9805 2.85352C24.9089 3.11393 24.847 3.41341 24.7949 3.75195C24.7493 4.09049 24.7103 4.44531 24.6777 4.81641C24.6452 5.18099 24.6191 5.54883 24.5996 5.91992C24.5801 6.28451 24.5638 6.62956 24.5508 6.95508C24.5443 7.27409 24.5378 7.55729 24.5312 7.80469C24.5312 8.05208 24.5312 8.23763 24.5312 8.36133C24.5247 8.62174 24.5182 8.85286 24.5117 9.05469C24.5117 9.25651 24.5085 9.45508 24.502 9.65039C24.4954 9.8457 24.4889 10.054 24.4824 10.2754C24.4824 10.4967 24.4824 10.7572 24.4824 11.0566ZM24.4531 17.1797C24.4531 17.5898 24.4499 17.9707 24.4434 18.3223C24.4434 18.6803 24.4434 19.0059 24.4434 19.2988C24.4434 19.9043 24.4466 20.5033 24.4531 21.0957C24.4596 21.6882 24.4889 22.2188 24.541 22.6875C24.5996 23.1628 24.6842 23.5436 24.7949 23.8301C24.9121 24.123 25.0781 24.2695 25.293 24.2695C25.4883 24.2695 25.6478 24.1816 25.7715 24.0059C25.8952 23.8301 25.9896 23.6217 26.0547 23.3809C26.1263 23.14 26.1751 22.8926 26.2012 22.6387C26.2272 22.3913 26.2402 22.1895 26.2402 22.0332C26.2402 21.6361 26.2012 21.2194 26.123 20.7832C26.0514 20.347 25.9375 19.9141 25.7812 19.4844C25.6315 19.0612 25.446 18.651 25.2246 18.2539C25.0033 17.8568 24.7461 17.4987 24.4531 17.1797ZM28.9062 15.9785C29.388 15.7637 29.8242 15.5163 30.2148 15.2363C30.612 14.9564 30.9635 14.6634 31.2695 14.3574C31.582 14.0449 31.8457 13.7292 32.0605 13.4102C32.2819 13.0846 32.4577 12.7754 32.5879 12.4824C32.6465 12.3392 32.7572 12.2676 32.9199 12.2676C33.0306 12.2676 33.1185 12.3066 33.1836 12.3848C33.2552 12.4564 33.291 12.5378 33.291 12.6289C33.291 12.681 33.2812 12.7298 33.2617 12.7754C33.1185 13.0944 32.9362 13.4264 32.7148 13.7715C32.4935 14.11 32.2233 14.4453 31.9043 14.7773C31.5918 15.1029 31.224 15.4186 30.8008 15.7246C30.3776 16.0306 29.8926 16.3105 29.3457 16.5645C29.6973 16.929 30.0033 17.3327 30.2637 17.7754C30.5241 18.2246 30.7389 18.6901 30.9082 19.1719C31.084 19.6536 31.2142 20.1387 31.2988 20.627C31.39 21.1217 31.4355 21.5938 31.4355 22.043C31.4355 22.4531 31.3965 22.8372 31.3184 23.1953C31.2467 23.5599 31.1361 23.8757 30.9863 24.1426C30.8431 24.4095 30.6673 24.6178 30.459 24.7676C30.2507 24.9238 30.013 25.002 29.7461 25.002C29.3555 25.002 29.0527 24.8555 28.8379 24.5625C28.623 24.276 28.4635 23.8757 28.3594 23.3613C28.2617 22.8535 28.2031 22.2513 28.1836 21.5547C28.1706 20.8646 28.1641 20.1126 28.1641 19.2988C28.1641 18.8952 28.1641 18.4232 28.1641 17.8828C28.1641 17.349 28.1641 16.7728 28.1641 16.1543C28.1706 15.5423 28.1738 14.901 28.1738 14.2305C28.1803 13.5534 28.1868 12.8763 28.1934 12.1992C28.1999 11.5221 28.2064 10.8581 28.2129 10.207C28.2194 9.54948 28.2292 8.92773 28.2422 8.3418C28.2617 7.22201 28.3008 6.22266 28.3594 5.34375C28.418 4.46484 28.5124 3.72266 28.6426 3.11719C28.7728 2.51172 28.9486 2.05273 29.1699 1.74023C29.3978 1.42122 29.6842 1.26172 30.0293 1.26172C30.3027 1.26172 30.5339 1.33984 30.7227 1.49609C30.9115 1.64583 31.0645 1.85091 31.1816 2.11133C31.2988 2.36523 31.3835 2.66471 31.4355 3.00977C31.4876 3.35482 31.5137 3.71615 31.5137 4.09375C31.5137 4.88802 31.4453 5.65625 31.3086 6.39844C31.1719 7.14062 30.9863 7.86003 30.752 8.55664C30.5176 9.25326 30.2409 9.93359 29.9219 10.5977C29.6094 11.2617 29.2741 11.916 28.916 12.5605C28.916 12.8275 28.916 13.1172 28.916 13.4297C28.916 13.7357 28.916 14.0449 28.916 14.3574C28.916 14.6634 28.9128 14.9596 28.9062 15.2461C28.9062 15.526 28.9062 15.7702 28.9062 15.9785ZM28.9355 11.0566C29.2025 10.5553 29.4466 10.028 29.668 9.47461C29.8958 8.91471 30.0911 8.33854 30.2539 7.74609C30.4167 7.15365 30.5436 6.54818 30.6348 5.92969C30.7259 5.3112 30.7715 4.68945 30.7715 4.06445C30.7715 3.75195 30.7552 3.46875 30.7227 3.21484C30.6966 2.96094 30.651 2.74609 30.5859 2.57031C30.5273 2.38802 30.4492 2.24805 30.3516 2.15039C30.2604 2.04622 30.153 1.99414 30.0293 1.99414C29.8991 1.99414 29.7852 2.07227 29.6875 2.22852C29.5898 2.38477 29.5052 2.5931 29.4336 2.85352C29.362 3.11393 29.3001 3.41341 29.248 3.75195C29.2025 4.09049 29.1634 4.44531 29.1309 4.81641C29.0983 5.18099 29.0723 5.54883 29.0527 5.91992C29.0332 6.28451 29.0169 6.62956 29.0039 6.95508C28.9974 7.27409 28.9909 7.55729 28.9844 7.80469C28.9844 8.05208 28.9844 8.23763 28.9844 8.36133C28.9779 8.62174 28.9714 8.85286 28.9648 9.05469C28.9648 9.25651 28.9616 9.45508 28.9551 9.65039C28.9486 9.8457 28.9421 10.054 28.9355 10.2754C28.9355 10.4967 28.9355 10.7572 28.9355 11.0566ZM28.9062 17.1797C28.9062 17.5898 28.903 17.9707 28.8965 18.3223C28.8965 18.6803 28.8965 19.0059 28.8965 19.2988C28.8965 19.9043 28.8997 20.5033 28.9062 21.0957C28.9128 21.6882 28.9421 22.2188 28.9941 22.6875C29.0527 23.1628 29.1374 23.5436 29.248 23.8301C29.3652 24.123 29.5312 24.2695 29.7461 24.2695C29.9414 24.2695 30.1009 24.1816 30.2246 24.0059C30.3483 23.8301 30.4427 23.6217 30.5078 23.3809C30.5794 23.14 30.6283 22.8926 30.6543 22.6387C30.6803 22.3913 30.6934 22.1895 30.6934 22.0332C30.6934 21.6361 30.6543 21.2194 30.5762 20.7832C30.5046 20.347 30.3906 19.9141 30.2344 19.4844C30.0846 19.0612 29.8991 18.651 29.6777 18.2539C29.4564 17.8568 29.1992 17.4987 28.9062 17.1797ZM33.7695 14.4258C33.9062 14.6146 34.082 14.7676 34.2969 14.8848C34.5117 14.9954 34.7754 15.0508 35.0879 15.0508C35.4069 15.0508 35.6966 14.9759 35.957 14.8262C36.2174 14.6699 36.4551 14.4681 36.6699 14.2207C36.8848 13.9733 37.0768 13.6966 37.2461 13.3906C37.4154 13.0846 37.5684 12.7786 37.7051 12.4727C37.7376 12.401 37.7832 12.349 37.8418 12.3164C37.9004 12.2773 37.9655 12.2578 38.0371 12.2578C38.1478 12.2578 38.2357 12.2969 38.3008 12.375C38.3724 12.4531 38.4082 12.5378 38.4082 12.6289C38.4082 12.6615 38.4049 12.6908 38.3984 12.7168C38.3919 12.7363 38.3822 12.7591 38.3691 12.7852C37.9199 13.7747 37.4284 14.5202 36.8945 15.0215C36.3672 15.5228 35.7682 15.7799 35.0977 15.793C34.668 15.793 34.2969 15.7083 33.9844 15.5391C33.6719 15.3763 33.4147 15.1647 33.2129 14.9043C33.0111 14.6374 32.8613 14.3379 32.7637 14.0059C32.666 13.6738 32.6172 13.3418 32.6172 13.0098C32.6172 12.6777 32.6562 12.3717 32.7344 12.0918C32.819 11.8118 32.9362 11.5677 33.0859 11.3594C33.2422 11.151 33.4245 10.9883 33.6328 10.8711C33.8477 10.7539 34.082 10.6953 34.3359 10.6953C34.4857 10.6953 34.6322 10.7279 34.7754 10.793C34.9251 10.8516 35.0586 10.9395 35.1758 11.0566C35.293 11.1673 35.3874 11.304 35.459 11.4668C35.5306 11.6296 35.5664 11.8151 35.5664 12.0234C35.5664 12.2904 35.5208 12.541 35.4297 12.7754C35.3385 13.0098 35.2116 13.2279 35.0488 13.4297C34.8926 13.6315 34.7038 13.8171 34.4824 13.9863C34.2611 14.1556 34.0234 14.3021 33.7695 14.4258ZM33.4766 13.791C33.6784 13.7064 33.8607 13.599 34.0234 13.4688C34.1927 13.3385 34.3359 13.1953 34.4531 13.0391C34.5703 12.8828 34.6615 12.7201 34.7266 12.5508C34.7917 12.375 34.8242 12.1992 34.8242 12.0234C34.8242 11.8281 34.7754 11.6816 34.6777 11.584C34.5801 11.4798 34.4661 11.4277 34.3359 11.4277C34.1602 11.4277 34.0104 11.4766 33.8867 11.5742C33.763 11.6719 33.6621 11.7988 33.584 11.9551C33.5059 12.1113 33.4473 12.2871 33.4082 12.4824C33.3757 12.6712 33.3594 12.86 33.3594 13.0488C33.3594 13.166 33.3691 13.2897 33.3887 13.4199C33.4147 13.5501 33.444 13.6738 33.4766 13.791ZM38.8867 14.4258C39.0234 14.6146 39.1992 14.7676 39.4141 14.8848C39.6289 14.9954 39.8926 15.0508 40.2051 15.0508C40.5241 15.0508 40.8138 14.9759 41.0742 14.8262C41.3346 14.6699 41.5723 14.4681 41.7871 14.2207C42.002 13.9733 42.194 13.6966 42.3633 13.3906C42.5326 13.0846 42.6855 12.7786 42.8223 12.4727C42.8548 12.401 42.9004 12.349 42.959 12.3164C43.0176 12.2773 43.0827 12.2578 43.1543 12.2578C43.265 12.2578 43.3529 12.2969 43.418 12.375C43.4896 12.4531 43.5254 12.5378 43.5254 12.6289C43.5254 12.6615 43.5221 12.6908 43.5156 12.7168C43.5091 12.7363 43.4993 12.7591 43.4863 12.7852C43.0371 13.7747 42.5456 14.5202 42.0117 15.0215C41.4844 15.5228 40.8854 15.7799 40.2148 15.793C39.7852 15.793 39.4141 15.7083 39.1016 15.5391C38.7891 15.3763 38.5319 15.1647 38.3301 14.9043C38.1283 14.6374 37.9785 14.3379 37.8809 14.0059C37.7832 13.6738 37.7344 13.3418 37.7344 13.0098C37.7344 12.6777 37.7734 12.3717 37.8516 12.0918C37.9362 11.8118 38.0534 11.5677 38.2031 11.3594C38.3594 11.151 38.5417 10.9883 38.75 10.8711C38.9648 10.7539 39.1992 10.6953 39.4531 10.6953C39.6029 10.6953 39.7493 10.7279 39.8926 10.793C40.0423 10.8516 40.1758 10.9395 40.293 11.0566C40.4102 11.1673 40.5046 11.304 40.5762 11.4668C40.6478 11.6296 40.6836 11.8151 40.6836 12.0234C40.6836 12.2904 40.638 12.541 40.5469 12.7754C40.4557 13.0098 40.3288 13.2279 40.166 13.4297C40.0098 13.6315 39.821 13.8171 39.5996 13.9863C39.3783 14.1556 39.1406 14.3021 38.8867 14.4258ZM38.5938 13.791C38.7956 13.7064 38.9779 13.599 39.1406 13.4688C39.3099 13.3385 39.4531 13.1953 39.5703 13.0391C39.6875 12.8828 39.7786 12.7201 39.8438 12.5508C39.9089 12.375 39.9414 12.1992 39.9414 12.0234C39.9414 11.8281 39.8926 11.6816 39.7949 11.584C39.6973 11.4798 39.5833 11.4277 39.4531 11.4277C39.2773 11.4277 39.1276 11.4766 39.0039 11.5742C38.8802 11.6719 38.7793 11.7988 38.7012 11.9551C38.623 12.1113 38.5645 12.2871 38.5254 12.4824C38.4928 12.6712 38.4766 12.86 38.4766 13.0488C38.4766 13.166 38.4863 13.2897 38.5059 13.4199C38.5319 13.5501 38.5612 13.6738 38.5938 13.791ZM64.5703 5.24609C64.5508 5.33724 64.5085 5.40885 64.4434 5.46094C64.3783 5.51302 64.3066 5.53906 64.2285 5.53906C64.1113 5.53906 64.0169 5.50326 63.9453 5.43164C63.8737 5.35352 63.8379 5.26562 63.8379 5.16797C63.8379 5.07031 63.8477 4.97591 63.8672 4.88477C63.8867 4.78711 63.8965 4.69271 63.8965 4.60156C63.8965 4.1263 63.75 3.69987 63.457 3.32227C63.1641 2.94466 62.7474 2.62891 62.207 2.375C61.6732 2.11458 61.0221 1.91602 60.2539 1.7793C59.4857 1.64258 58.6296 1.57422 57.6855 1.57422C56.9629 1.57422 56.2337 1.62305 55.498 1.7207C54.7689 1.81185 54.0658 1.94857 53.3887 2.13086C52.7181 2.30664 52.0898 2.53125 51.5039 2.80469C50.918 3.07161 50.4069 3.38411 49.9707 3.74219C49.541 4.09375 49.2025 4.48763 48.9551 4.92383C48.7077 5.35352 48.584 5.82552 48.584 6.33984C48.584 6.73698 48.6686 7.08854 48.8379 7.39453C49.0137 7.69401 49.2513 7.95768 49.5508 8.18555C49.8503 8.4069 50.2018 8.59896 50.6055 8.76172C51.0156 8.91797 51.4583 9.05143 51.9336 9.16211C52.4089 9.26628 52.9036 9.35417 53.418 9.42578C53.9323 9.49089 54.4499 9.54622 54.9707 9.5918L56.4746 9.71875C57.2233 9.78385 57.8939 9.85221 58.4863 9.92383C59.0788 9.99544 59.5996 10.0866 60.0488 10.1973C60.7975 10.3861 61.3509 10.6562 61.709 11.0078C62.0671 11.3594 62.2461 11.8281 62.2461 12.4141C62.2461 12.9805 62.0898 13.4785 61.7773 13.9082C61.4648 14.3379 61.0384 14.6992 60.498 14.9922C59.9577 15.2852 59.3262 15.5065 58.6035 15.6562C57.8809 15.806 57.1061 15.8809 56.2793 15.8809C55.3809 15.8809 54.5898 15.819 53.9062 15.6953C53.2292 15.5781 52.6595 15.4479 52.1973 15.3047C51.7415 15.1549 51.3932 15.0182 51.1523 14.8945C50.9115 14.7708 50.7812 14.7025 50.7617 14.6895C50.6445 14.6243 50.5859 14.5202 50.5859 14.377C50.5859 14.2663 50.625 14.1784 50.7031 14.1133C50.7812 14.0417 50.8659 14.0059 50.957 14.0059C51.0286 14.0059 51.0938 14.0254 51.1523 14.0645C51.1589 14.0645 51.2695 14.123 51.4844 14.2402C51.7057 14.3509 52.0312 14.4746 52.4609 14.6113C52.8971 14.748 53.4342 14.8717 54.0723 14.9824C54.7103 15.0931 55.4525 15.1484 56.2988 15.1484C57.1387 15.1484 57.8809 15.0801 58.5254 14.9434C59.1699 14.8066 59.7103 14.6178 60.1465 14.377C60.5892 14.1296 60.9212 13.8431 61.1426 13.5176C61.3704 13.1855 61.4844 12.8275 61.4844 12.4434C61.4844 12.2155 61.4421 12.0202 61.3574 11.8574C61.2793 11.6882 61.1686 11.5449 61.0254 11.4277C60.8822 11.304 60.7096 11.1999 60.5078 11.1152C60.3125 11.0306 60.0977 10.959 59.8633 10.9004C59.6159 10.8353 59.349 10.7799 59.0625 10.7344C58.7826 10.6888 58.4928 10.6497 58.1934 10.6172C57.8939 10.5846 57.5911 10.5553 57.2852 10.5293C56.9857 10.5033 56.6895 10.4772 56.3965 10.4512L54.8926 10.3242C53.7077 10.2266 52.6725 10.0768 51.7871 9.875C50.9082 9.66667 50.1758 9.40299 49.5898 9.08398C49.0039 8.75846 48.5645 8.37109 48.2715 7.92188C47.9785 7.47266 47.832 6.94857 47.832 6.34961C47.832 5.73763 47.9688 5.17773 48.2422 4.66992C48.5221 4.1556 48.8997 3.69336 49.375 3.2832C49.8568 2.87305 50.4167 2.51823 51.0547 2.21875C51.6992 1.91276 52.3861 1.65885 53.1152 1.45703C53.8444 1.25521 54.5996 1.10547 55.3809 1.00781C56.1621 0.903646 56.9303 0.851562 57.6855 0.851562C58.6296 0.851562 59.4499 0.910156 60.1465 1.02734C60.8496 1.13802 61.4486 1.28451 61.9434 1.4668C62.4447 1.64258 62.8548 1.8444 63.1738 2.07227C63.4928 2.30013 63.75 2.52474 63.9453 2.74609C64.4076 3.28646 64.6387 3.90169 64.6387 4.5918C64.6387 4.81966 64.6159 5.03776 64.5703 5.24609ZM65.7324 14.6699C65.8366 14.4486 65.957 14.2109 66.0938 13.957C66.2305 13.6966 66.377 13.4329 66.5332 13.166C66.6895 12.8926 66.8555 12.6224 67.0312 12.3555C67.207 12.0885 67.3893 11.8379 67.5781 11.6035C67.7669 11.3757 67.9557 11.2129 68.1445 11.1152C68.3398 11.0111 68.5221 10.959 68.6914 10.959C68.8607 10.959 69.0072 10.9948 69.1309 11.0664C69.2611 11.1315 69.3652 11.2227 69.4434 11.3398C69.528 11.457 69.5898 11.5938 69.6289 11.75C69.6745 11.9062 69.6973 12.0755 69.6973 12.2578C69.6973 12.4076 69.681 12.6094 69.6484 12.8633C69.6224 13.1107 69.6094 13.3711 69.6094 13.6445C69.6094 13.8008 69.6159 13.957 69.6289 14.1133C69.6484 14.263 69.6777 14.3997 69.7168 14.5234C69.7624 14.6406 69.8275 14.7383 69.9121 14.8164C69.9967 14.888 70.1074 14.9238 70.2441 14.9238C70.4004 14.9238 70.5566 14.8815 70.7129 14.7969C70.8691 14.7057 71.0221 14.5885 71.1719 14.4453C71.3216 14.2956 71.4648 14.1328 71.6016 13.957C71.7383 13.7747 71.862 13.5957 71.9727 13.4199C72.0833 13.2376 72.181 13.0651 72.2656 12.9023C72.3503 12.7331 72.4186 12.5931 72.4707 12.4824C72.5358 12.3327 72.6497 12.2578 72.8125 12.2578C72.9232 12.2578 73.0111 12.2969 73.0762 12.375C73.1413 12.4531 73.1738 12.5378 73.1738 12.6289C73.1738 12.681 73.1641 12.7298 73.1445 12.7754C73.1185 12.8275 73.0664 12.9349 72.9883 13.0977C72.9167 13.2604 72.8158 13.4492 72.6855 13.6641C72.5618 13.8789 72.4154 14.1035 72.2461 14.3379C72.0768 14.5723 71.888 14.7904 71.6797 14.9922C71.4779 15.1875 71.2565 15.3503 71.0156 15.4805C70.7812 15.6042 70.5339 15.666 70.2734 15.666C69.974 15.666 69.7331 15.6042 69.5508 15.4805C69.3685 15.3503 69.2253 15.1875 69.1211 14.9922C69.0234 14.7969 68.9551 14.5788 68.916 14.3379C68.8835 14.097 68.8672 13.8626 68.8672 13.6348C68.8672 13.5176 68.8704 13.3939 68.877 13.2637C68.89 13.127 68.903 12.9935 68.916 12.8633C68.929 12.7331 68.9388 12.6126 68.9453 12.502C68.9583 12.3848 68.9648 12.2871 68.9648 12.209C68.9648 12.0072 68.9355 11.8704 68.877 11.7988C68.8249 11.7272 68.763 11.6914 68.6914 11.6914C68.5872 11.6914 68.4668 11.7533 68.3301 11.877C68.1999 11.9941 68.0599 12.1504 67.9102 12.3457C67.7669 12.541 67.6204 12.7624 67.4707 13.0098C67.3275 13.2507 67.1875 13.4915 67.0508 13.7324C66.9141 13.9733 66.7904 14.2044 66.6797 14.4258C66.569 14.6406 66.4779 14.8197 66.4062 14.9629C66.2695 15.2363 66.1296 15.4186 65.9863 15.5098C65.8496 15.6074 65.7259 15.6562 65.6152 15.6562C65.4134 15.6562 65.2572 15.5781 65.1465 15.4219C65.0423 15.2591 64.9902 15.0638 64.9902 14.8359V14.2207C64.9902 12.9902 64.9902 11.8184 64.9902 10.7051C64.9967 9.58529 65.013 8.54688 65.0391 7.58984C65.0716 6.6263 65.1204 5.75716 65.1855 4.98242C65.2572 4.20117 65.3613 3.53711 65.498 2.99023C65.6348 2.43685 65.8073 2.01042 66.0156 1.71094C66.2305 1.41146 66.4974 1.26172 66.8164 1.26172C67.0898 1.26172 67.321 1.33659 67.5098 1.48633C67.6986 1.63607 67.8516 1.84115 67.9688 2.10156C68.0859 2.35547 68.1706 2.65495 68.2227 3C68.2747 3.33854 68.3008 3.69661 68.3008 4.07422C68.3008 4.84245 68.2292 5.59766 68.0859 6.33984C67.9492 7.07552 67.7637 7.79492 67.5293 8.49805C67.2949 9.20117 67.0215 9.88802 66.709 10.5586C66.3965 11.2227 66.0677 11.8704 65.7227 12.502C65.7227 12.6191 65.7227 12.7591 65.7227 12.9219C65.7227 13.0846 65.7227 13.2474 65.7227 13.4102C65.7227 13.5729 65.7227 13.7259 65.7227 13.8691C65.7227 14.0124 65.7227 14.1263 65.7227 14.2109L65.7324 14.6699ZM65.7324 11.0664C66.0059 10.4674 66.2533 9.88477 66.4746 9.31836C66.7025 8.74544 66.8945 8.17578 67.0508 7.60938C67.2135 7.04297 67.3405 6.47005 67.4316 5.89062C67.5228 5.30469 67.5684 4.69596 67.5684 4.06445C67.5684 3.96029 67.5618 3.79427 67.5488 3.56641C67.5423 3.33854 67.513 3.10742 67.4609 2.87305C67.4154 2.63867 67.3405 2.43359 67.2363 2.25781C67.1387 2.08203 66.9987 1.99414 66.8164 1.99414C66.6732 1.99414 66.5495 2.0918 66.4453 2.28711C66.3411 2.47591 66.25 2.73633 66.1719 3.06836C66.0938 3.39388 66.0286 3.77474 65.9766 4.21094C65.9245 4.64714 65.8822 5.10938 65.8496 5.59766C65.8171 6.08594 65.791 6.58724 65.7715 7.10156C65.7585 7.61589 65.7487 8.11719 65.7422 8.60547C65.7357 9.08724 65.7324 9.53971 65.7324 9.96289C65.7324 10.3861 65.7324 10.7539 65.7324 11.0664ZM76.9824 14.4258C76.8197 14.4258 76.6764 14.4128 76.5527 14.3867C76.4551 14.582 76.3379 14.7643 76.2012 14.9336C76.0645 15.0964 75.9049 15.2396 75.7227 15.3633C75.5469 15.487 75.3483 15.5846 75.127 15.6562C74.9056 15.7279 74.6647 15.7637 74.4043 15.7637C74.0983 15.7637 73.8184 15.7083 73.5645 15.5977C73.3105 15.4935 73.0892 15.347 72.9004 15.1582C72.7116 14.9629 72.5651 14.7318 72.4609 14.4648C72.3568 14.1914 72.3047 13.8919 72.3047 13.5664C72.3047 13.1497 72.3796 12.7884 72.5293 12.4824C72.679 12.1699 72.8516 11.9128 73.0469 11.7109C73.2422 11.5026 73.4375 11.3496 73.6328 11.252C73.8281 11.1478 73.9746 11.0957 74.0723 11.0957C74.1829 11.0957 74.2643 11.125 74.3164 11.1836C74.375 11.2422 74.4043 11.3203 74.4043 11.418C74.4043 11.5286 74.3685 11.6133 74.2969 11.6719C74.2318 11.724 74.1471 11.776 74.043 11.8281C73.9388 11.8802 73.8281 11.9551 73.7109 12.0527C73.5938 12.1439 73.4831 12.2611 73.3789 12.4043C73.2812 12.5475 73.1999 12.7168 73.1348 12.9121C73.0697 13.1074 73.0371 13.3255 73.0371 13.5664C73.0371 13.7812 73.0697 13.9831 73.1348 14.1719C73.1999 14.3542 73.2943 14.5137 73.418 14.6504C73.5417 14.7806 73.6882 14.8848 73.8574 14.9629C74.0267 15.0345 74.2155 15.0703 74.4238 15.0703C74.7949 15.0703 75.1009 14.9857 75.3418 14.8164C75.5892 14.6406 75.778 14.4193 75.9082 14.1523C75.5241 13.9505 75.2083 13.6641 74.9609 13.293C74.7135 12.9219 74.5898 12.5052 74.5898 12.043C74.5898 11.6719 74.6777 11.3691 74.8535 11.1348C75.0358 10.9004 75.2734 10.7832 75.5664 10.7832C75.7422 10.7832 75.9082 10.8255 76.0645 10.9102C76.2207 10.9948 76.3574 11.1283 76.4746 11.3105C76.5983 11.4928 76.696 11.7272 76.7676 12.0137C76.8392 12.3001 76.875 12.6419 76.875 13.0391C76.875 13.2474 76.849 13.4655 76.7969 13.6934C76.8359 13.6999 76.875 13.7031 76.9141 13.7031C76.9531 13.7031 76.9954 13.7031 77.041 13.7031C77.2624 13.7031 77.4609 13.6771 77.6367 13.625C77.8125 13.5729 77.972 13.4948 78.1152 13.3906C78.2585 13.2865 78.3854 13.153 78.4961 12.9902C78.6133 12.8275 78.724 12.6387 78.8281 12.4238C78.8477 12.3848 78.89 12.349 78.9551 12.3164C79.0202 12.2773 79.0853 12.2578 79.1504 12.2578C79.235 12.2578 79.3132 12.2936 79.3848 12.3652C79.4629 12.4303 79.502 12.5182 79.502 12.6289C79.502 12.681 79.4889 12.7396 79.4629 12.8047C79.4368 12.8633 79.4108 12.9186 79.3848 12.9707C79.2741 13.166 79.1439 13.3548 78.9941 13.5371C78.8509 13.7129 78.6784 13.8691 78.4766 14.0059C78.2812 14.1361 78.0599 14.2402 77.8125 14.3184C77.5651 14.3965 77.2884 14.4323 76.9824 14.4258ZM75.3125 11.9648C75.3125 12.0885 75.3288 12.2188 75.3613 12.3555C75.3939 12.4922 75.4427 12.6289 75.5078 12.7656C75.5794 12.8958 75.6641 13.0228 75.7617 13.1465C75.8659 13.2637 75.9863 13.3646 76.123 13.4492C76.1426 13.3125 76.1523 13.179 76.1523 13.0488C76.1523 12.873 76.1393 12.694 76.1133 12.5117C76.0872 12.3294 76.0482 12.1634 75.9961 12.0137C75.9505 11.8574 75.8919 11.7337 75.8203 11.6426C75.7487 11.5449 75.6641 11.4961 75.5664 11.4961C75.5273 11.4961 75.4753 11.5254 75.4102 11.584C75.3451 11.6426 75.3125 11.7695 75.3125 11.9648ZM83.8184 12.7754C83.8184 13.3743 83.7109 13.8854 83.4961 14.3086C83.2812 14.7318 83.0176 15.054 82.7051 15.2754H82.7441C83.1283 15.2754 83.4766 15.1908 83.7891 15.0215C84.1081 14.8457 84.3945 14.6243 84.6484 14.3574C84.9023 14.084 85.1302 13.7812 85.332 13.4492C85.5339 13.1172 85.7129 12.7949 85.8691 12.4824C85.9017 12.4108 85.9473 12.3555 86.0059 12.3164C86.071 12.2773 86.1393 12.2578 86.2109 12.2578C86.3216 12.2578 86.4095 12.2969 86.4746 12.375C86.5397 12.4531 86.5723 12.5378 86.5723 12.6289C86.5723 12.681 86.5625 12.7298 86.543 12.7754C86.3737 13.153 86.1719 13.5339 85.9375 13.918C85.7031 14.2956 85.4297 14.6374 85.1172 14.9434C84.8047 15.2493 84.4531 15.4967 84.0625 15.6855C83.6719 15.8809 83.2389 15.9785 82.7637 15.9785C82.4186 15.9785 82.0833 15.9232 81.7578 15.8125C81.4323 15.7083 81.1458 15.5423 80.8984 15.3145C80.8073 15.2428 80.7292 15.168 80.6641 15.0898C80.599 15.0052 80.5469 14.9271 80.5078 14.8555C80.4948 14.8424 80.4883 14.8294 80.4883 14.8164C80.4492 14.7578 80.4297 14.696 80.4297 14.6309C80.4297 14.5462 80.459 14.4681 80.5176 14.3965C80.5241 14.3835 80.5306 14.377 80.5371 14.377C80.5436 14.3704 80.5501 14.3639 80.5566 14.3574C80.6217 14.2988 80.6934 14.2663 80.7715 14.2598H80.8008C80.8333 14.2598 80.8561 14.263 80.8691 14.2695C80.8757 14.2695 80.8789 14.2728 80.8789 14.2793C80.8854 14.2793 80.8919 14.2793 80.8984 14.2793C80.918 14.2793 80.9408 14.2858 80.9668 14.2988C80.9733 14.3053 80.9798 14.3086 80.9863 14.3086C81.0449 14.3477 81.0938 14.3965 81.1328 14.4551C81.1784 14.5332 81.2305 14.6048 81.2891 14.6699C81.3411 14.722 81.403 14.7708 81.4746 14.8164C81.5462 14.8555 81.6276 14.875 81.7188 14.875C81.8815 14.875 82.0443 14.8262 82.207 14.7285C82.3698 14.6309 82.5163 14.4909 82.6465 14.3086C82.7767 14.1263 82.8809 13.9049 82.959 13.6445C83.0436 13.3841 83.0859 13.0944 83.0859 12.7754C83.0859 12.541 83.0599 12.3424 83.0078 12.1797C82.9622 12.0104 82.9004 11.8737 82.8223 11.7695C82.7507 11.6654 82.6725 11.5905 82.5879 11.5449C82.5033 11.4928 82.4219 11.4668 82.3438 11.4668C82.168 11.4668 81.9889 11.5579 81.8066 11.7402C81.6309 11.9225 81.4551 12.1536 81.2793 12.4336C81.1035 12.7135 80.9277 13.0228 80.752 13.3613C80.5827 13.6999 80.4102 14.0286 80.2344 14.3477C80.2214 15.4023 80.2018 16.4082 80.1758 17.3652C80.1562 18.3223 80.1172 19.2109 80.0586 20.0312C80.0065 20.8516 79.9316 21.5938 79.834 22.2578C79.7363 22.9219 79.6029 23.4883 79.4336 23.957C79.2643 24.4323 79.056 24.7969 78.8086 25.0508C78.5612 25.3047 78.2585 25.4316 77.9004 25.4316C77.7897 25.4316 77.6628 25.4089 77.5195 25.3633C77.3763 25.3177 77.2428 25.2233 77.1191 25.0801C76.9954 24.9434 76.8913 24.7448 76.8066 24.4844C76.722 24.224 76.6797 23.8757 76.6797 23.4395C76.6797 22.8861 76.748 22.2448 76.8848 21.5156C77.0215 20.7865 77.2168 20.0117 77.4707 19.1914C77.7181 18.3776 78.0143 17.541 78.3594 16.6816C78.7044 15.8223 79.0853 14.9857 79.502 14.1719C79.502 13.944 79.502 13.7194 79.502 13.498C79.5085 13.2767 79.5117 13.0618 79.5117 12.8535C79.4271 12.9512 79.3262 13 79.209 13C79.0983 13 79.0104 12.9609 78.9453 12.8828C78.8802 12.8047 78.8477 12.7201 78.8477 12.6289C78.8477 12.5833 78.8574 12.5345 78.877 12.4824C79.0332 12.1243 79.1536 11.7858 79.2383 11.4668C79.3229 11.1413 79.3848 10.8581 79.4238 10.6172C79.4694 10.3698 79.4954 10.1745 79.502 10.0312C79.5085 9.88802 79.5117 9.81315 79.5117 9.80664C79.5117 9.70898 79.5475 9.62435 79.6191 9.55273C79.6908 9.48112 79.7786 9.44531 79.8828 9.44531C79.9805 9.44531 80.0651 9.48112 80.1367 9.55273C80.2083 9.61784 80.2441 9.70247 80.2441 9.80664V12.8047C80.3939 12.5508 80.5436 12.3001 80.6934 12.0527C80.8431 11.8053 80.9993 11.584 81.1621 11.3887C81.3314 11.1934 81.5104 11.0371 81.6992 10.9199C81.8945 10.7962 82.1094 10.7344 82.3438 10.7344C82.5651 10.7344 82.7669 10.7865 82.9492 10.8906C83.1315 10.9948 83.2878 11.138 83.418 11.3203C83.5482 11.5026 83.6458 11.7207 83.7109 11.9746C83.7826 12.222 83.8184 12.4889 83.8184 12.7754ZM79.4824 15.9102C79.1634 16.6263 78.8737 17.3457 78.6133 18.0684C78.3594 18.791 78.1445 19.4876 77.9688 20.1582C77.7865 20.8288 77.6465 21.457 77.5488 22.043C77.4512 22.6289 77.4023 23.1432 77.4023 23.5859C77.4023 23.6966 77.4089 23.8171 77.4219 23.9473C77.4349 24.0775 77.4609 24.1979 77.5 24.3086C77.5391 24.4193 77.5944 24.5104 77.666 24.582C77.7376 24.6602 77.832 24.6992 77.9492 24.6992C78.1641 24.6992 78.3496 24.5625 78.5059 24.2891C78.6621 24.0221 78.7923 23.6576 78.8965 23.1953C79.0072 22.7396 79.0983 22.2122 79.1699 21.6133C79.2415 21.0208 79.2969 20.3991 79.3359 19.748C79.3815 19.097 79.4141 18.4395 79.4336 17.7754C79.4531 17.1178 79.4694 16.4961 79.4824 15.9102Z" fill="white"/>
</svg>
