<svg width="15" height="14" viewBox="0 0 15 14" fill="none" xmlns="http://www.w3.org/2000/svg">
<path d="M13.7405 5.13165L9.7733 4.55508L7.99986 0.959771C7.95142 0.861334 7.87173 0.781646 7.7733 0.733209C7.52642 0.611334 7.22642 0.712896 7.10298 0.959771L5.32955 4.55508L1.36236 5.13165C1.25298 5.14727 1.15298 5.19883 1.07642 5.27696C0.983861 5.37209 0.932856 5.50008 0.934614 5.63281C0.936372 5.76553 0.990749 5.89212 1.0858 5.98477L3.95611 8.78321L3.27798 12.7348C3.26208 12.8267 3.27225 12.9212 3.30735 13.0077C3.34244 13.0941 3.40105 13.169 3.47653 13.2238C3.55201 13.2786 3.64134 13.3112 3.73439 13.3178C3.82744 13.3245 3.92049 13.3049 4.00298 13.2613L7.55142 11.3957L11.0999 13.2613C11.1967 13.3129 11.3092 13.3301 11.417 13.3113C11.6889 13.2645 11.8717 13.0066 11.8249 12.7348L11.1467 8.78321L14.017 5.98477C14.0952 5.90821 14.1467 5.80821 14.1624 5.69883C14.2045 5.4254 14.0139 5.17227 13.7405 5.13165Z" fill="#FF8906"/>
</svg>
